<!--?xml version="1.0" standalone="no"?-->

<svg version="1.0" xmlns="http://www.w3.org/2000/svg" width="300.000000pt" height="286.000000pt" viewBox="0 0 300.000000 286.000000" preserveAspectRatio="xMidYMid meet">
<g transform="translate(0.000000,286.000000) scale(0.100000,-0.100000)" fill="#1F1F1F" stroke="none">
<path stroke-width="20" class="node" id="node1" d="M1482 2837 c-21 -23 -37 -56 -123 -257 -50 -118 -102 -200 -215 -340
-120 -149 -133 -181 -89 -216 l28 -22 -53 -89 c-29 -48 -79 -121 -111 -160
-33 -40 -59 -81 -59 -91 0 -29 28 -60 60 -67 l30 -6 -25 -49 c-38 -74 -84
-139 -147 -205 -32 -33 -58 -64 -58 -68 0 -19 60 -67 84 -67 14 0 26 -4 26 -9
0 -22 -110 -174 -176 -242 -88 -91 -95 -119 -39 -146 20 -10 34 -22 31 -29
-14 -36 -132 -180 -213 -261 -51 -50 -93 -96 -93 -102 0 -5 5 -21 11 -35 24
-51 124 -58 211 -16 52 25 149 27 204 4 22 -9 64 -32 94 -52 50 -34 62 -37
136 -40 44 -2 98 1 120 8 85 25 111 29 162 23 41 -4 52 -10 52 -23 0 -14 -11
-20 -42 -25 -72 -12 -216 -62 -333 -115 -43 -20 -156 -59 -216 -76 -43 -11
-118 -18 -226 -22 -140 -4 -176 -1 -270 18 -59 12 -128 29 -152 37 -51 17 -95
5 -89 -25 10 -50 427 -91 631 -62 87 13 144 31 287 90 149 63 282 107 347 116
l52 6 -8 -28 c-7 -28 -11 -29 -82 -36 -80 -9 -179 -41 -160 -52 6 -4 17 -4 24
1 41 26 258 25 340 -1 32 -10 56 -20 53 -24 -4 -3 -50 -8 -103 -11 -64 -4 -98
-10 -101 -18 -8 -27 159 -9 298 31 80 23 187 30 249 17 30 -6 56 -9 58 -7 10
9 -40 27 -95 34 -49 6 -57 10 -60 30 -4 26 15 29 61 7 97 -44 269 -85 452
-106 109 -12 510 -3 645 16 90 12 76 13 -261 14 -457 1 -530 12 -806 123 -105
42 -122 59 -89 87 26 22 116 24 196 5 168 -39 217 -32 354 49 63 37 78 41 131
40 33 0 87 -10 119 -22 96 -34 146 -37 179 -11 15 12 27 31 27 45 0 23 -63
112 -98 137 -20 14 -172 198 -172 208 0 3 17 4 38 2 30 -3 45 2 67 20 37 32
30 48 -53 134 -83 84 -107 117 -161 216 l-42 77 35 6 c35 7 50 25 40 48 -3 6
-32 33 -64 59 -64 52 -123 134 -152 210 -23 62 -23 68 5 68 30 0 67 27 67 49
0 9 -18 35 -41 56 -72 70 -186 218 -223 290 l-36 70 16 42 c24 62 13 99 -52
174 -108 124 -197 274 -280 472 -16 37 -39 78 -52 92 -29 32 -71 33 -100 2z
m93 -83 c14 -15 25 -31 25 -36 0 -4 19 -48 42 -96 53 -111 150 -258 227 -345
46 -51 61 -75 61 -98 0 -41 -15 -66 -50 -84 -41 -21 -63 -19 -121 11 -46 25
-56 26 -117 19 -111 -14 -153 -11 -209 15 -48 22 -55 23 -95 10 -24 -7 -57
-24 -74 -36 -69 -50 -184 -51 -168 -2 3 12 55 81 115 152 103 125 152 205 222
366 48 112 74 150 103 150 8 0 26 -12 39 -26z m-140 -674 c58 -34 78 -36 172
-14 81 19 123 14 174 -22 29 -20 47 -25 78 -22 35 3 41 0 57 -27 43 -77 110
-167 180 -244 71 -78 75 -85 58 -98 -28 -20 -106 -15 -188 12 -41 14 -90 25
-109 25 -44 0 -112 -24 -158 -56 -80 -55 -198 -41 -365 46 -57 29 -111 50
-130 50 -38 0 -90 -21 -123 -49 -23 -21 -80 -41 -113 -41 -9 0 -29 10 -44 23
l-27 23 67 90 c37 49 71 94 76 101 5 6 24 39 41 72 26 49 37 61 63 66 17 4 55
23 85 42 94 61 134 66 206 23z m-105 -444 c96 -57 190 -86 275 -86 64 0 77 4
130 35 105 63 184 70 303 24 49 -19 64 -30 69 -49 16 -66 69 -148 143 -221 43
-42 76 -80 73 -83 -13 -13 -60 -5 -111 19 -30 14 -66 25 -81 25 -33 0 -64 -32
-81 -83 -6 -20 -20 -41 -29 -47 -24 -12 -106 14 -251 81 -100 46 -125 53 -191
57 -66 3 -83 1 -131 -22 -75 -36 -167 -33 -247 7 -14 7 -64 12 -115 12 -81 -1
-98 -4 -160 -33 -38 -18 -77 -32 -88 -32 -24 0 -68 29 -68 44 0 6 23 34 51 61
54 53 118 144 146 207 9 21 25 40 35 44 9 3 39 20 65 38 65 44 69 46 138 43
49 -2 72 -10 125 -41z m-105 -397 c83 -30 167 -30 224 0 92 48 196 39 339 -32
186 -92 274 -109 298 -57 39 84 48 99 67 104 12 3 39 0 60 -6 35 -10 43 -20
79 -92 49 -97 96 -162 177 -244 75 -75 77 -96 10 -100 -37 -2 -63 5 -135 40
-75 35 -101 43 -164 46 l-75 4 -70 -48 c-99 -68 -133 -78 -187 -57 -24 9 -50
22 -58 29 -8 6 -46 26 -85 44 -38 17 -78 36 -88 41 -10 6 -40 13 -65 15 -42 5
-57 0 -147 -46 -58 -30 -113 -52 -131 -52 -40 0 -120 42 -172 89 -12 12 -26
16 -84 27 -33 7 -112 -15 -187 -51 -59 -29 -88 -38 -131 -38 -81 0 -78 18 22
123 50 53 99 117 123 161 45 83 58 94 135 116 70 19 165 13 245 -16z m-105
-406 c120 -80 146 -81 275 -13 136 71 164 70 349 -24 170 -87 189 -87 314 -2
76 51 89 56 137 56 54 0 137 -28 187 -62 15 -11 56 -54 90 -96 34 -42 90 -107
125 -145 48 -51 63 -74 63 -97 0 -49 -49 -52 -182 -9 -106 33 -169 22 -288
-53 -14 -9 -46 -24 -73 -33 -47 -18 -49 -17 -140 5 -133 34 -204 32 -297 -9
-69 -31 -80 -33 -150 -28 -41 3 -104 15 -139 26 -74 24 -176 27 -225 7 -33
-14 -94 -20 -167 -17 -24 1 -55 14 -90 37 -59 40 -147 73 -194 74 -32 0 -96
-18 -160 -45 -50 -22 -110 -7 -127 31 -11 23 -8 28 26 56 50 41 176 185 221
254 20 31 44 58 53 61 10 3 40 16 67 28 174 80 201 80 325 -2z m315 -568 c78
-19 162 -19 215 0 24 8 44 14 46 13 1 -2 4 -34 5 -72 l4 -70 -35 -9 c-19 -5
-57 -15 -83 -23 -42 -13 -52 -13 -70 -1 -30 18 -104 44 -150 52 -34 5 -38 9
-32 28 3 12 9 39 12 60 6 42 6 42 88 22z"></path>
</g>
<g transform="translate(0.000000,286.000000) scale(0.100000,-0.100000)" fill="#4FB062" stroke="none">


<path class="node" id="node4" d="M1501 2759 c-19 -21 -34 -48 -68 -129 -70 -161 -119 -241 -222 -366
-60 -71 -112 -140 -115 -152 -16 -49 99 -48 168 2 17 12 50 29 74 36 40 13 47
12 95 -10 56 -26 98 -29 209 -15 61 7 71 6 117 -19 58 -30 80 -32 121 -11 35
18 50 43 50 84 0 23 -15 47 -61 98 -77 87 -174 234 -227 345 -23 48 -42 92
-42 96 0 15 -48 62 -64 62 -8 0 -24 -10 -35 -21z"></path>
<path class="node" id="node5" d="M1309 2101 c-14 -5 -50 -24 -80 -44 -30 -19 -68 -38 -85 -42 -26 -5
-37 -17 -63 -66 -17 -33 -36 -66 -41 -72 -5 -7 -39 -52 -76 -101 l-67 -90 27
-23 c15 -13 35 -23 44 -23 33 0 90 20 113 41 33 28 85 49 123 49 19 0 73 -21
130 -50 167 -87 285 -101 365 -46 46 32 114 56 158 56 19 0 68 -11 109 -25 82
-27 160 -32 188 -12 17 13 13 20 -58 98 -70 77 -137 167 -180 244 -16 27 -22
30 -57 27 -31 -3 -49 2 -78 22 -51 36 -93 41 -174 22 -94 -22 -114 -20 -172
14 -51 30 -79 35 -126 21z"></path>
<path class="node" id="node6" d="M1130 1673 c-8 -3 -36 -21 -63 -39 -26 -18 -56 -35 -65 -38 -10 -4
-26 -23 -35 -44 -28 -63 -92 -154 -146 -207 -28 -27 -51 -55 -51 -61 0 -15 44
-44 68 -44 11 0 50 14 88 32 62 29 79 32 160 33 51 0 101 -5 115 -12 80 -40
172 -43 247 -7 48 23 65 25 131 22 66 -4 91 -11 191 -57 145 -67 227 -93 251
-81 9 6 23 27 29 47 17 51 48 83 81 83 15 0 51 -11 81 -25 51 -24 98 -32 111
-19 3 3 -30 41 -73 83 -74 73 -127 155 -143 221 -5 19 -20 30 -69 49 -119 46
-198 39 -303 -24 -53 -31 -66 -35 -130 -35 -85 0 -179 29 -275 86 -53 31 -76
39 -125 41 -33 1 -67 0 -75 -4z"></path>
<path class="node" id="node7" d="M980 1255 c-77 -22 -90 -33 -135 -116 -24 -44 -73 -108 -123 -161
-100 -105 -103 -123 -22 -123 43 0 72 9 131 38 75 36 154 58 187 51 58 -11 72
-15 84 -27 52 -47 132 -89 172 -89 18 0 73 22 131 52 90 46 105 51 147 46 25
-2 55 -9 65 -15 10 -5 50 -24 88 -41 39 -18 77 -38 85 -44 8 -7 34 -20 58 -29
54 -21 88 -11 187 57 l70 48 75 -4 c63 -3 89 -11 164 -46 72 -35 98 -42 135
-40 67 4 65 25 -10 100 -81 82 -128 147 -177 244 -36 72 -44 82 -79 92 -21 6
-48 9 -60 6 -19 -5 -28 -20 -67 -104 -24 -52 -112 -35 -298 57 -143 71 -247
80 -339 32 -57 -30 -141 -30 -224 0 -80 29 -175 35 -245 16z"></path>
<path class="node" id="node8" d="M945 894 c-27 -7 -90 -31 -150 -59 -27 -12 -57 -25 -67 -28 -9 -3
-33 -30 -53 -61 -45 -69 -171 -213 -221 -254 -34 -28 -37 -33 -26 -56 17 -38
77 -53 127 -31 64 27 128 45 160 45 47 -1 135 -34 194 -74 35 -23 66 -36 90
-37 73 -3 134 3 167 17 49 20 151 17 225 -7 35 -11 98 -23 139 -26 70 -5 81
-3 150 28 93 41 164 43 297 9 91 -22 93 -23 140 -5 27 9 59 24 73 33 119 75
182 86 288 53 133 -43 182 -40 182 9 0 23 -15 46 -63 97 -35 38 -91 103 -125
145 -34 42 -75 85 -90 96 -50 34 -133 62 -187 62 -48 0 -61 -5 -137 -56 -125
-85 -144 -85 -314 2 -185 94 -213 95 -349 24 -129 -68 -155 -67 -275 13 -82
54 -131 71 -175 61z"></path>
<path class="node" id="node9" d="M1347 243 c-3 -21 -9 -48 -12 -60 -6 -19 -2 -23 32 -28 46 -8 120
-34 150 -52 18 -12 28 -12 70 1 26 8 64 18 83 23 l35 9 -4 70 c-1 38 -4 70 -5
72 -2 1 -22 -5 -46 -13 -53 -19 -137 -19 -215 0 -82 20 -82 20 -88 -22z"></path>

</g>
</svg>