<!--?xml version="1.0" standalone="no"?-->

<svg version="1.0" xmlns="http://www.w3.org/2000/svg" width="300.000000pt" height="258.000000pt" viewBox="0 0 300.000000 258.000000" preserveAspectRatio="xMidYMid meet">
<g transform="translate(0.000000,258.000000) scale(0.100000,-0.100000)" fill="#2F2F2F" stroke="none">
<path d="M263 2571 c-55 -14 -123 -61 -158 -109 -82 -111 -99 -264 -55 -477
32 -159 30 -238 -11 -355 -31 -89 -33 -104 -34 -225 0 -117 2 -134 23 -175 69
-133 205 -200 406 -200 153 0 286 33 464 116 50 23 92 40 92 36 0 -9 -45 -73
-141 -202 -189 -252 -388 -440 -567 -535 -28 -16 -52 -34 -52 -42 0 -23 133
-148 200 -188 36 -21 115 -55 177 -75 94 -32 186 -78 266 -133 22 -15 43 8
149 163 156 229 276 464 366 720 45 127 88 278 98 340 4 23 9 38 12 36 3 -3
18 -56 34 -118 43 -168 104 -343 174 -498 42 -92 125 -253 145 -282 11 -14 19
-29 19 -32 0 -23 213 -324 236 -333 6 -2 34 11 61 30 65 46 112 69 213 102
140 45 235 100 317 182 40 40 73 79 73 86 0 7 -19 24 -42 36 -191 105 -377
276 -569 527 -63 82 -162 224 -156 224 1 0 39 -17 82 -39 173 -84 319 -121
476 -121 208 0 340 64 411 200 21 41 23 58 22 175 0 118 -3 138 -31 220 -46
135 -48 168 -17 330 30 159 35 287 15 360 -33 118 -90 193 -177 236 -43 21
-62 24 -164 23 -92 0 -128 -5 -180 -23 -160 -55 -279 -120 -546 -297 -150
-100 -177 -114 -213 -114 -65 0 -137 -44 -168 -103 -9 -17 -12 -15 -31 17 -26
45 -105 86 -164 86 -36 0 -56 9 -123 57 -230 163 -456 292 -606 344 -77 26
-112 33 -194 35 -55 2 -114 0 -132 -5z m317 -66 c141 -52 350 -169 545 -304
114 -80 111 -77 86 -91 -19 -10 -33 -4 -109 46 -48 32 -103 68 -122 79 -19 12
-47 29 -62 38 -116 71 -319 174 -412 208 -130 47 -226 36 -199 -24 11 -24 128
-96 233 -145 103 -47 208 -92 215 -92 7 0 234 -95 310 -129 22 -10 50 -21 62
-25 l22 -7 -19 -50 c-25 -63 -25 -132 0 -188 11 -24 20 -45 20 -46 0 -2 -15 1
-32 6 -45 13 -92 11 -106 -3 -17 -17 -15 -55 3 -62 11 -4 15 1 15 19 0 22 4
25 38 24 20 0 51 -5 68 -12 38 -14 248 -242 238 -258 -11 -19 -186 -144 -275
-197 -169 -102 -382 -190 -512 -213 -106 -18 -288 -7 -362 21 -86 33 -159 110
-176 184 -19 86 -7 245 26 336 41 111 43 203 11 371 -33 173 -34 257 -2 344
30 84 61 129 110 161 59 40 81 44 201 40 90 -3 124 -8 185 -31z m2198 5 c72
-36 113 -92 144 -196 24 -82 21 -175 -11 -344 -29 -146 -25 -243 14 -355 33
-94 45 -246 26 -330 -16 -72 -80 -143 -163 -180 -56 -26 -77 -29 -190 -33
-206 -7 -318 22 -573 149 -129 65 -355 215 -395 264 -10 12 7 35 96 129 115
122 131 133 202 143 45 6 45 6 40 -21 -4 -21 -2 -26 11 -24 9 2 17 15 19 29 2
21 -3 29 -27 39 -26 10 -39 10 -76 -2 -25 -9 -45 -14 -45 -13 0 1 10 24 22 51
26 60 28 145 5 191 -23 43 -21 52 11 64 15 6 41 17 57 25 17 8 75 33 130 55
55 22 114 47 132 54 17 8 34 15 37 15 16 0 246 104 320 144 121 66 155 103
124 134 -18 18 -108 14 -174 -8 -149 -52 -427 -200 -652 -347 -46 -31 -82 -38
-82 -16 0 17 280 198 445 287 167 91 272 123 406 125 77 1 92 -2 147 -29z
m-2296 -61 c96 -34 238 -103 383 -189 50 -29 114 -66 143 -83 28 -17 52 -35
52 -40 0 -6 -5 -5 -12 0 -7 5 -60 29 -118 52 -58 23 -114 46 -125 51 -11 5
-60 25 -110 45 -174 71 -345 163 -345 186 0 16 40 10 132 -22z m2168 21 c0
-29 -240 -149 -487 -244 -48 -19 -125 -50 -171 -69 -45 -19 -80 -32 -77 -27 9
15 230 144 370 216 191 98 365 157 365 124z m-891 -385 c39 -19 54 -35 75 -77
14 -29 26 -69 26 -90 0 -89 -87 -214 -284 -408 l-76 -74 -78 79 c-266 269
-312 363 -248 501 19 42 31 54 65 67 104 42 200 2 234 -98 19 -55 43 -57 56
-7 15 53 46 91 95 113 54 25 77 24 135 -6z m-311 -648 l32 -33 -24 -125 c-28
-143 -61 -270 -81 -316 -8 -17 -15 -34 -15 -38 0 -17 -74 -203 -116 -293 -94
-198 -286 -514 -345 -568 -19 -17 -20 -17 -47 3 -46 34 -122 69 -229 106 -55
20 -123 47 -150 61 -58 29 -153 104 -176 139 -16 25 -16 25 46 63 215 131 472
404 671 712 26 39 57 79 69 87 12 9 70 47 128 86 59 38 127 87 150 109 24 21
46 39 50 40 3 0 20 -15 37 -33z m200 -15 c66 -56 131 -102 218 -155 36 -22 73
-54 90 -79 280 -411 490 -631 749 -783 16 -10 13 -16 -34 -63 -68 -69 -166
-125 -287 -166 -100 -33 -187 -73 -236 -107 -41 -29 -29 -40 -148 130 -93 131
-249 424 -310 581 -106 274 -186 592 -158 629 20 27 51 61 56 61 2 0 29 -22
60 -48z" id="node1" class="node"></path>
<path d="M134 2364 c-20 -19 -24 -31 -19 -52 7 -32 71 -132 84 -132 16 0 103
83 112 107 20 53 -25 107 -69 84 -12 -6 -24 -5 -37 5 -27 20 -42 18 -71 -12z
m58 -11 c9 -10 17 -25 20 -33 4 -11 7 -10 17 8 13 25 49 30 57 7 11 -28 -6
-63 -45 -94 l-39 -31 -31 42 c-32 44 -40 85 -19 106 16 16 22 15 40 -5z" id="node2" class="node"></path>
<path d="M547 2139 c-34 -26 -34 -58 -2 -127 23 -49 26 -52 52 -46 74 18 123
56 123 95 0 32 -39 65 -65 56 -8 -4 -20 2 -27 12 -21 30 -52 34 -81 10z m63
-24 c6 -8 9 -19 6 -24 -4 -5 -2 -12 3 -15 5 -4 12 -2 16 4 8 13 52 13 60 0 13
-21 -8 -53 -48 -71 -23 -10 -48 -19 -55 -19 -26 0 -56 113 -35 133 11 12 40 8
53 -8z" id="node3" class="node"></path>
<path d="M305 2061 c-3 -5 -22 -7 -42 -4 -43 7 -63 -13 -63 -62 0 -30 22 -56
96 -118 21 -18 22 -17 59 34 45 63 55 111 30 139 -19 21 -69 27 -80 11z m65
-32 c9 -16 7 -29 -10 -64 -32 -67 -44 -72 -86 -40 -43 33 -62 70 -48 93 16 24
31 25 51 3 22 -26 33 -27 33 -2 0 34 44 41 60 10z" id="node4" class="node"></path>
<path d="M965 2000 c-4 -6 -15 -8 -26 -5 -50 16 -90 -35 -65 -84 15 -28 86
-81 108 -81 17 0 78 94 78 121 0 39 -19 59 -55 59 -18 0 -37 -5 -40 -10z m65
-25 c7 -8 9 -23 4 -37 -10 -31 -45 -78 -60 -78 -6 0 -30 17 -53 38 -31 27 -41
42 -36 55 9 21 53 23 61 2 7 -18 24 -20 24 -2 0 16 20 37 36 37 6 0 17 -7 24
-15z" id="node5" class="node"></path>
<path d="M663 1775 c-14 -10 -32 -13 -48 -9 -16 4 -34 0 -50 -10 -36 -24 -33
-64 8 -102 33 -31 91 -74 100 -74 3 0 24 26 46 57 46 65 52 102 21 133 -24 24
-48 25 -77 5z m67 -30 c15 -18 5 -49 -29 -95 -14 -19 -26 -36 -27 -38 -5 -8
-85 50 -99 72 -30 45 22 90 56 47 22 -27 25 -26 33 4 7 29 45 35 66 10z" id="node6" class="node"></path>
<path d="M177 1722 c-26 -29 -17 -150 15 -189 10 -13 91 20 135 54 52 40 34
113 -27 113 -19 0 -33 7 -40 20 -14 26 -61 27 -83 2z m71 -39 c3 -32 4 -32 28
-17 30 20 54 12 54 -18 0 -33 -9 -42 -68 -72 l-52 -26 -11 27 c-21 55 -22 108
-4 127 26 26 49 16 53 -21z" id="node7" class="node"></path>
<path d="M946 1558 c-19 -27 -20 -53 -5 -116 18 -72 26 -76 90 -51 62 25 99
60 99 93 0 29 -29 56 -61 56 -13 0 -30 9 -37 20 -17 28 -66 27 -86 -2z m74
-13 c6 -8 9 -19 5 -25 -13 -20 6 -30 29 -14 21 13 25 13 40 -1 19 -20 20 -26
4 -48 -15 -19 -106 -59 -118 -52 -10 6 -25 92 -21 115 7 38 39 51 61 25z" id="node8" class="node"></path>
<path d="M625 1400 c-9 -10 -25 -19 -34 -18 -37 3 -49 -4 -61 -33 -11 -27 -11
-34 7 -57 20 -28 128 -86 143 -77 13 8 40 95 40 130 0 65 -56 98 -95 55z m59
-16 c9 -8 16 -23 16 -32 0 -28 -26 -106 -36 -109 -5 -1 -31 10 -59 25 -39 21
-51 33 -53 55 -4 32 21 46 49 29 25 -16 29 -15 29 6 0 18 18 42 31 42 4 0 15
-7 23 -16z" id="node9" class="node"></path>
<path d="M177 1372 c-24 -27 -21 -85 8 -142 l25 -50 39 19 c69 36 101 69 101
106 0 39 -31 68 -65 59 -13 -3 -27 1 -34 10 -18 21 -54 20 -74 -2z m73 -44 c0
-20 1 -20 18 -5 25 23 49 21 57 -3 9 -29 -14 -60 -64 -88 l-41 -23 -20 43
c-24 54 -25 94 -3 107 24 13 53 -4 53 -31z" id="node10" class="node"></path>
<path d="M2780 2380 c-8 -5 -28 -7 -45 -5 -34 6 -47 -1 -64 -32 -9 -18 -9 -29
4 -53 15 -28 71 -86 100 -103 20 -11 95 102 95 142 0 46 -52 76 -90 51z m54
-26 c9 -8 16 -21 16 -28 0 -18 -58 -106 -70 -106 -5 0 -28 16 -50 37 -31 27
-40 43 -38 62 2 20 9 27 31 29 19 2 27 -1 27 -12 0 -9 7 -16 15 -16 8 0 15 8
15 18 0 35 28 43 54 16z" id="node11" class="node"></path>
<path d="M2365 2140 c-10 -11 -30 -20 -45 -20 -56 0 -73 -56 -32 -102 13 -15
122 -63 126 -56 54 111 60 157 24 182 -30 21 -51 20 -73 -4z m71 -34 c3 -15
-2 -42 -14 -70 -20 -44 -21 -45 -54 -36 -41 12 -82 42 -86 63 -2 9 6 21 18 27
17 9 26 8 46 -5 23 -15 24 -15 24 8 0 30 7 37 36 37 17 0 25 -7 30 -24z" id="node12" class="node"></path>
<path d="M2603 2058 c-29 -38 -15 -97 40 -162 l24 -30 30 22 c17 12 45 38 63
58 26 30 31 42 26 67 -8 38 -22 48 -63 45 -18 -1 -35 1 -39 5 -12 12 -71 8
-81 -5z m66 -29 c19 -31 19 -31 31 -9 17 31 54 23 58 -13 3 -23 -5 -37 -38
-68 -22 -21 -44 -39 -48 -39 -13 0 -62 87 -62 112 0 24 16 48 32 48 5 0 17
-14 27 -31z" id="node13" class="node"></path>
<path d="M1940 2000 c-11 -11 -20 -27 -20 -36 0 -22 26 -73 54 -108 l24 -28
46 27 c52 30 76 59 76 91 0 32 -34 58 -67 51 -17 -3 -36 0 -47 9 -27 19 -42
18 -66 -6z m67 -30 c5 -19 33 -29 33 -11 0 17 29 20 44 5 21 -20 5 -52 -41
-84 l-35 -24 -24 29 c-43 53 -44 105 -3 105 12 0 23 -8 26 -20z" id="node14" class="node"></path>
<path d="M2239 1774 c-23 -28 -16 -80 18 -126 47 -65 54 -67 112 -28 54 37 77
75 67 113 -8 33 -47 52 -75 38 -17 -10 -25 -9 -37 4 -20 20 -68 19 -85 -1z
m71 -14 c4 0 11 -12 14 -26 l7 -27 16 22 c17 25 50 25 67 -1 13 -22 -14 -62
-66 -94 l-37 -23 -30 46 c-17 26 -31 56 -31 68 0 26 20 47 38 40 8 -3 17 -5
22 -5z" id="node15" class="node"></path>
<path d="M2727 1728 c-13 -13 -37 -24 -52 -25 -16 -1 -32 -8 -37 -15 -13 -21
-9 -62 8 -86 17 -25 121 -75 139 -68 13 5 45 103 45 138 0 31 -26 64 -57 73
-16 4 -29 0 -46 -17z m61 -20 c23 -23 6 -148 -19 -148 -5 0 -32 11 -59 25 -49
25 -71 59 -55 84 8 14 42 14 50 1 3 -5 13 -10 21 -10 8 0 12 5 9 10 -20 33 26
65 53 38z" id="node16" class="node"></path>
<path d="M1950 1565 c-13 -14 -34 -25 -47 -25 -31 0 -56 -40 -44 -71 13 -34
38 -54 103 -77 l56 -21 16 46 c25 73 21 127 -10 152 -34 27 -45 26 -74 -4z
m70 -20 c14 -17 8 -92 -10 -125 -10 -18 -11 -18 -61 2 -59 25 -88 60 -69 83
14 17 46 20 55 5 11 -18 25 -11 25 13 0 13 3 27 7 30 11 12 40 7 53 -8z" id="node17" class="node"></path>
<path d="M2285 1405 c-29 -28 -31 -54 -9 -121 26 -76 28 -77 87 -48 69 35 97
62 97 94 0 32 -28 60 -59 60 -13 0 -34 9 -48 20 -33 26 -39 25 -68 -5z m63
-37 c3 -28 16 -36 27 -18 10 16 52 12 59 -6 10 -26 -12 -53 -65 -79 l-49 -26
-20 47 c-23 53 -24 67 -7 94 18 30 51 22 55 -12z" id="node18" class="node"></path>
<path d="M2730 1375 c-7 -9 -21 -13 -31 -10 -44 14 -80 -35 -59 -84 10 -26
102 -91 127 -91 15 0 63 102 63 132 0 56 -68 92 -100 53z m54 -11 c32 -12 6
-144 -29 -144 -6 0 -31 14 -53 30 -33 24 -42 36 -42 60 0 25 4 30 24 30 13 0
26 -7 30 -15 9 -23 26 -18 26 8 0 35 12 43 44 31z" id="node19" class="node"></path>
<path d="M1286 1283 c-3 -4 -24 -6 -46 -5 -40 3 -60 -15 -60 -53 0 -19 77
-105 94 -105 27 0 86 81 86 119 0 36 -51 67 -74 44z m-30 -40 c13 -17 15 -17
25 0 12 21 48 22 55 2 7 -18 -43 -95 -61 -95 -11 0 -75 64 -75 75 0 34 35 45
56 18z" id="node20" class="node"></path>
<path d="M1131 1011 c-25 -25 -34 -75 -23 -126 l8 -40 66 0 c51 0 71 4 87 19
27 25 27 61 -1 87 -13 11 -26 23 -30 27 -4 4 -16 17 -27 30 -26 27 -55 28 -80
3z m63 -48 c-2 -30 0 -32 25 -27 36 7 57 -16 41 -45 -9 -18 -20 -21 -70 -21
l-60 0 0 53 c0 57 13 79 45 75 16 -2 20 -10 19 -35z" id="node21" class="node"></path>
<path d="M849 819 c-16 -16 -20 -29 -15 -51 6 -29 57 -111 76 -123 13 -8 107
51 120 76 15 26 12 75 -4 89 -8 6 -31 10 -50 9 -20 -2 -41 2 -48 9 -18 18 -56
14 -79 -9z m75 -24 c6 -11 12 -22 13 -24 2 -2 12 4 22 13 22 20 56 14 65 -11
5 -11 -8 -30 -40 -60 -26 -23 -52 -43 -58 -43 -32 0 -81 121 -59 144 13 12 46
2 57 -19z" id="node22" class="node"></path>
<path d="M846 504 c-18 -17 -23 -138 -6 -164 11 -18 92 -14 138 7 62 29 60
103 -3 119 -13 3 -31 17 -40 30 -18 28 -65 33 -89 8z m76 -47 c-2 -22 1 -24
35 -23 32 1 39 -3 41 -20 2 -12 -4 -28 -12 -36 -14 -14 -113 -34 -123 -25 -2
3 -7 30 -10 61 -5 46 -2 60 12 76 16 18 21 19 39 6 14 -9 20 -23 18 -39z" id="node23" class="node"></path>
<path d="M586 477 c-15 -11 -26 -12 -47 -4 -39 15 -79 -12 -79 -55 0 -24 12
-43 54 -85 32 -32 59 -51 67 -47 22 9 88 93 95 121 5 17 0 33 -13 51 -23 32
-51 38 -77 19z m-38 -42 l20 -25 17 26 c23 36 59 30 63 -12 2 -23 -6 -40 -36
-74 l-38 -43 -42 37 c-47 43 -58 67 -42 96 14 27 34 25 58 -5z" id="node24" class="node"></path>
<path d="M1636 1271 c-24 -26 -20 -54 14 -92 16 -19 30 -37 30 -40 0 -4 7 -10
15 -13 24 -9 105 70 105 103 0 45 -13 54 -83 57 -52 2 -68 -1 -81 -15z m61
-21 c6 -24 19 -26 31 -4 11 20 46 15 50 -8 2 -9 -13 -34 -32 -55 l-36 -38 -30
33 c-28 30 -39 70 -23 85 13 14 35 6 40 -13z" id="node25" class="node"></path>
<path d="M1776 1014 c-9 -8 -16 -21 -16 -29 0 -7 -10 -15 -23 -19 -13 -3 -29
-18 -36 -33 -10 -23 -9 -30 7 -52 15 -20 32 -28 75 -35 31 -4 63 -6 71 -3 30
12 25 159 -6 179 -21 13 -55 9 -72 -8z m65 -25 c16 -16 19 -30 17 -67 l-3 -47
-56 -3 c-45 -2 -58 1 -73 17 -24 27 -7 51 36 51 25 0 28 3 23 20 -7 21 9 50
26 50 5 0 18 -9 30 -21z" id="node26" class="node"></path>
<path d="M2065 837 c-11 -6 -37 -12 -57 -13 -47 0 -68 -19 -68 -58 0 -35 17
-54 84 -99 46 -30 50 -28 95 42 38 59 40 93 5 120 -31 24 -32 24 -59 8z m59
-39 c11 -18 -3 -55 -43 -106 l-18 -24 -47 33 c-65 46 -76 99 -20 99 14 0 27
-7 30 -15 9 -23 23 -18 34 11 12 29 46 30 64 2z" id="node27" class="node"></path>
<path d="M2051 501 c-14 -15 -36 -31 -49 -35 -48 -16 -53 -82 -9 -111 28 -18
142 -32 150 -18 3 5 9 39 13 75 6 62 5 68 -19 92 -33 33 -53 33 -86 -3z m60
-1 c16 -9 19 -22 19 -75 0 -35 -3 -66 -7 -68 -19 -11 -117 11 -129 28 -18 24
-17 30 1 49 12 11 22 13 40 6 23 -9 25 -7 25 18 0 16 5 33 12 40 15 15 15 15
39 2z" id="node28" class="node"></path>
<path d="M2321 464 c-12 -15 -21 -31 -21 -36 0 -28 83 -138 104 -138 7 0 34
19 60 42 73 64 83 114 27 142 -19 10 -32 11 -45 4 -13 -7 -26 -7 -43 1 -38 17
-60 13 -82 -15z m74 -22 c11 -25 35 -30 35 -7 0 16 43 31 59 20 24 -14 11 -58
-29 -97 -23 -21 -45 -38 -49 -38 -18 0 -81 81 -81 103 0 48 46 62 65 19z" id="node29" class="node"></path>
</g>
<g transform="translate(0.000000,258.000000) scale(0.100000,-0.100000)" fill="#61B4D5" stroke="none">



<path d="M259 2531 c-43 -14 -103 -59 -128 -96 -13 -19 -34 -64 -47 -100 -32
-87 -31 -171 2 -344 32 -168 30 -260 -11 -371 -33 -91 -45 -250 -26 -336 17
-74 90 -151 176 -184 74 -28 256 -39 362 -21 130 23 343 111 512 213 89 53
264 178 275 197 10 16 -200 244 -238 258 -17 7 -48 12 -68 12 -34 1 -38 -2
-38 -24 0 -18 -4 -23 -15 -19 -18 7 -20 45 -3 62 14 14 61 16 106 3 17 -5 32
-8 32 -6 0 1 -9 22 -20 46 -25 56 -25 125 0 188 l19 50 -22 7 c-12 4 -40 15
-62 25 -76 34 -303 129 -310 129 -7 0 -112 45 -215 92 -105 49 -222 121 -233
145 -27 60 69 71 199 24 93 -34 296 -137 412 -208 15 -9 43 -26 62 -38 19 -11
74 -47 122 -79 76 -50 90 -56 109 -46 11 7 17 15 13 20 -52 49 -387 258 -504
315 -139 69 -207 87 -325 91 -60 2 -122 0 -136 -5z m-54 -155 c13 -10 25 -11
37 -5 44 23 89 -31 69 -84 -9 -24 -96 -107 -112 -107 -13 0 -77 100 -84 132
-5 21 -1 33 19 52 29 30 44 32 71 12z m423 -247 c7 -10 19 -16 27 -12 26 9 65
-24 65 -56 0 -39 -49 -77 -123 -95 -26 -6 -29 -3 -52 46 -32 69 -32 101 2 127
29 24 60 20 81 -10z m-243 -79 c25 -28 15 -76 -30 -139 -37 -51 -38 -52 -59
-34 -74 62 -96 88 -96 118 0 49 20 69 63 62 20 -3 39 -1 42 4 11 16 61 10 80
-11z m665 -59 c5 -11 10 -29 10 -40 0 -27 -61 -121 -78 -121 -22 0 -93 53
-108 81 -25 49 15 100 65 84 11 -3 22 -1 26 5 11 18 73 12 85 -9z m-310 -221
c31 -31 25 -68 -21 -133 -22 -31 -43 -57 -46 -57 -9 0 -67 43 -100 74 -41 38
-44 78 -8 102 16 10 34 14 50 10 16 -4 34 -1 48 9 29 20 53 19 77 -5z m-480
-50 c7 -13 21 -20 40 -20 61 0 79 -73 27 -113 -44 -34 -125 -67 -135 -54 -32
39 -41 160 -15 189 22 25 69 24 83 -2z m772 -160 c7 -11 24 -20 37 -20 57 0
79 -60 39 -103 -33 -35 -128 -71 -144 -55 -13 15 -34 95 -34 130 0 59 74 94
102 48z m-328 -162 c9 -12 16 -36 16 -53 0 -35 -27 -122 -40 -130 -15 -9 -123
49 -143 77 -18 23 -18 30 -7 57 12 29 24 36 61 33 9 -1 25 8 34 18 24 26 60
25 79 -2z m-453 -24 c7 -9 21 -13 34 -10 34 9 65 -20 65 -59 0 -37 -32 -70
-101 -106 l-39 -19 -25 50 c-29 57 -32 115 -8 142 20 22 56 23 74 2z" id="node33" class="node"></path>
<path d="M152 2358 c-21 -21 -13 -62 19 -106 l31 -42 39 31 c39 31 56 66 45
94 -8 23 -44 18 -57 -7 -10 -18 -13 -19 -17 -8 -5 18 -32 50 -42 50 -3 0 -11
-5 -18 -12z" id="node34" class="node"></path>
<path d="M557 2123 c-21 -20 9 -133 35 -133 7 0 32 9 55 19 40 18 61 50 48 71
-8 13 -52 13 -60 0 -4 -6 -11 -8 -16 -4 -5 3 -7 10 -3 15 14 23 -40 52 -59 32z" id="node35" class="node"></path>
<path d="M323 2043 c-7 -2 -13 -13 -13 -24 0 -25 -11 -24 -33 2 -20 22 -35 21
-51 -3 -14 -23 5 -60 48 -93 42 -32 54 -27 86 40 17 35 19 48 10 64 -11 21
-23 24 -47 14z" id="node36" class="node"></path>
<path d="M982 1978 c-7 -7 -12 -18 -12 -25 0 -18 -17 -16 -24 2 -8 21 -52 19
-61 -2 -5 -13 5 -28 36 -55 23 -21 47 -38 53 -38 15 0 50 47 60 78 13 39 -25
67 -52 40z" id="node37" class="node"></path>
<path d="M664 1735 c-8 -30 -11 -31 -33 -4 -34 43 -86 -2 -56 -47 14 -22 94
-80 99 -72 1 2 13 19 27 38 49 66 46 110 -7 110 -17 0 -25 -7 -30 -25z" id="node38" class="node"></path>
<path d="M195 1704 c-18 -19 -17 -72 4 -127 l11 -27 52 26 c59 30 68 39 68 72
0 30 -24 38 -54 18 -24 -15 -25 -15 -28 17 -4 37 -27 47 -53 21z" id="node39" class="node"></path>
<path d="M972 1548 c-5 -7 -11 -20 -13 -28 -4 -23 11 -109 21 -115 12 -7 103
33 118 52 16 22 15 28 -4 48 -15 14 -19 14 -40 1 -23 -16 -42 -6 -29 14 8 13
-13 40 -30 40 -7 0 -17 -6 -23 -12z" id="node40" class="node"></path>
<path d="M642 1388 c-7 -7 -12 -20 -12 -30 0 -21 -4 -22 -29 -6 -28 17 -53 3
-49 -29 2 -22 14 -34 53 -55 28 -15 54 -26 59 -25 10 3 36 81 36 109 0 17 -25
48 -39 48 -4 0 -12 -5 -19 -12z" id="node41" class="node"></path>
<path d="M197 1359 c-22 -13 -21 -53 3 -107 l20 -43 41 23 c50 28 73 59 64 88
-8 24 -32 26 -57 3 -17 -15 -18 -15 -18 5 0 27 -29 44 -53 31z" id="node42" class="node"></path>
<path d="M2505 2529 c-118 -28 -275 -103 -472 -226 -133 -84 -253 -167 -253
-176 0 -22 36 -15 82 16 225 147 503 295 652 347 66 22 156 26 174 8 31 -31
-3 -68 -124 -134 -74 -40 -304 -144 -320 -144 -3 0 -20 -7 -37 -15 -18 -7 -77
-32 -132 -54 -55 -22 -113 -47 -130 -55 -16 -8 -42 -19 -57 -25 -32 -12 -34
-21 -11 -64 23 -46 21 -131 -5 -191 -12 -27 -22 -50 -22 -51 0 -1 20 4 45 13
37 12 50 12 76 2 24 -10 29 -18 27 -39 -2 -14 -10 -27 -19 -29 -13 -2 -15 3
-11 24 5 27 5 27 -40 21 -71 -10 -87 -21 -202 -143 -89 -94 -106 -117 -96
-129 40 -49 266 -199 395 -264 255 -127 367 -156 573 -149 113 4 134 7 190 33
83 37 147 108 163 180 19 84 7 236 -26 330 -39 112 -43 209 -14 355 32 169 35
262 11 344 -31 104 -72 160 -144 196 -55 27 -70 30 -147 29 -47 -1 -104 -5
-126 -10z m343 -155 c34 -24 28 -66 -19 -135 -44 -65 -44 -65 -103 -11 -51 46
-70 86 -55 115 17 31 30 38 64 32 17 -2 37 0 45 5 22 14 42 12 68 -6z m-410
-230 c36 -25 30 -71 -24 -182 -4 -7 -113 41 -126 56 -41 46 -24 102 32 102 15
0 35 9 45 20 22 24 43 25 73 4z m246 -81 c4 -4 21 -6 39 -5 41 3 55 -7 63 -45
5 -25 0 -37 -26 -67 -18 -20 -46 -46 -63 -58 l-30 -22 -24 30 c-75 89 -74 174
2 174 17 0 35 -3 39 -7z m-678 -57 c11 -9 30 -12 47 -9 33 7 67 -19 67 -51 0
-32 -24 -61 -76 -91 l-46 -27 -24 28 c-28 35 -54 86 -54 108 0 19 35 56 53 56
7 0 22 -6 33 -14z m318 -231 c12 -13 20 -14 37 -4 28 14 67 -5 75 -38 10 -38
-13 -76 -67 -113 -58 -39 -65 -37 -112 28 -34 46 -41 98 -18 126 17 20 65 21
85 1z m489 -57 c9 -11 17 -32 17 -46 0 -35 -32 -133 -45 -138 -18 -7 -122 43
-139 68 -17 24 -21 65 -8 86 5 7 21 14 37 15 15 1 39 12 52 25 27 27 57 23 86
-10z m-789 -149 c31 -25 35 -79 10 -152 l-16 -46 -56 21 c-65 23 -90 43 -103
77 -12 31 13 71 44 71 13 0 34 11 47 25 29 30 40 31 74 4z m329 -159 c14 -11
35 -20 48 -20 31 0 59 -28 59 -60 0 -32 -28 -59 -97 -94 -59 -29 -61 -28 -87
48 -22 67 -20 93 9 121 29 30 35 31 68 5z m461 -42 c9 -12 16 -33 16 -46 0
-30 -48 -132 -63 -132 -25 0 -117 65 -127 91 -21 49 15 98 59 84 10 -3 24 1
31 10 19 23 66 19 84 -7z" id="node43" class="node"></path>
<path d="M2787 2363 c-4 -3 -7 -15 -7 -25 0 -10 -7 -18 -15 -18 -8 0 -15 7
-15 16 0 11 -8 14 -27 12 -22 -2 -29 -9 -31 -29 -2 -19 7 -35 38 -62 22 -21
45 -37 50 -37 12 0 70 88 70 106 0 28 -46 55 -63 37z" id="node44" class="node"></path>
<path d="M2377 2123 c-4 -3 -7 -17 -7 -30 0 -23 -1 -23 -24 -8 -20 13 -29 14
-46 5 -12 -6 -20 -18 -18 -27 4 -21 45 -51 86 -63 33 -9 34 -8 54 36 24 56 18
94 -16 94 -12 0 -26 -3 -29 -7z" id="node45" class="node"></path>
<path d="M2622 2048 c-20 -20 -14 -58 16 -104 15 -24 30 -44 34 -44 4 0 26 18
48 39 33 31 41 45 38 68 -4 36 -41 44 -58 13 -12 -22 -12 -22 -31 9 -20 34
-29 37 -47 19z" id="node46" class="node"></path>
<path d="M1954 1975 c-9 -22 2 -56 30 -90 l24 -29 35 24 c46 32 62 64 41 84
-15 15 -44 12 -44 -5 0 -18 -28 -8 -33 11 -6 24 -45 27 -53 5z" id="node47" class="node"></path>
<path d="M2262 1758 c-20 -20 -14 -52 19 -101 l30 -46 37 23 c52 32 79 72 66
94 -17 26 -50 26 -67 1 l-16 -22 -7 27 c-3 14 -10 26 -14 26 -5 0 -14 2 -22 5
-7 3 -19 0 -26 -7z" id="node48" class="node"></path>
<path d="M2735 1700 c-3 -11 -3 -24 0 -30 3 -5 -1 -10 -9 -10 -8 0 -18 5 -21
10 -8 13 -42 13 -50 -1 -16 -25 6 -59 55 -84 27 -14 54 -25 59 -25 25 0 42
125 19 148 -18 18 -46 14 -53 -8z" id="node49" class="node"></path>
<path d="M1967 1553 c-4 -3 -7 -17 -7 -30 0 -24 -14 -31 -25 -13 -9 15 -41 12
-55 -5 -19 -23 10 -58 69 -83 50 -20 51 -20 61 -2 18 33 24 108 10 125 -13 15
-42 20 -53 8z" id="node50" class="node"></path>
<path d="M2293 1380 c-17 -27 -16 -41 7 -94 l20 -47 49 26 c53 26 75 53 65 79
-7 18 -49 22 -59 6 -11 -18 -24 -10 -27 18 -4 34 -37 42 -55 12z" id="node51" class="node"></path>
<path d="M2747 1363 c-4 -3 -7 -17 -7 -30 0 -26 -17 -31 -26 -8 -4 8 -17 15
-30 15 -20 0 -24 -5 -24 -30 0 -24 9 -36 42 -60 22 -16 47 -30 53 -30 35 0 61
132 29 144 -20 8 -29 8 -37 -1z" id="node52" class="node"></path>
<path d="M350 2471 c0 -23 171 -115 345 -186 50 -20 99 -40 110 -45 11 -5 67
-28 125 -51 58 -23 111 -47 118 -52 7 -5 12 -6 12 0 0 5 -24 23 -52 40 -29 17
-93 54 -143 83 -245 145 -515 255 -515 211z" id="node53" class="node"></path>
<path d="M2595 2473 c-63 -13 -187 -64 -310 -127 -140 -72 -361 -201 -370
-216 -3 -5 32 8 77 27 46 19 123 50 171 69 247 95 487 215 487 244 0 10 -18
11 -55 3z" id="node54" class="node"></path>
<path d="M1624 2091 c-49 -22 -80 -60 -95 -113 -13 -50 -37 -48 -56 7 -34 100
-130 140 -234 98 -34 -13 -46 -25 -65 -67 -64 -138 -18 -232 248 -501 l78 -79
76 74 c197 194 284 319 284 408 0 21 -12 61 -26 90 -21 42 -36 58 -75 77 -58
30 -81 31 -135 6z" id="node55" class="node"></path>
<path d="M1361 1430 c-23 -22 -91 -71 -150 -109 -58 -39 -116 -77 -128 -86
-12 -8 -43 -48 -69 -87 -199 -308 -456 -581 -671 -712 -62 -38 -62 -38 -46
-63 23 -35 118 -110 176 -139 27 -14 95 -41 150 -61 107 -37 183 -72 229 -106
27 -20 28 -20 47 -3 59 54 251 370 345 568 42 90 116 276 116 293 0 4 7 21 15
38 20 46 53 173 81 316 l24 125 -32 33 c-17 18 -34 33 -37 33 -4 -1 -26 -19
-50 -40z m-17 -156 c29 -28 17 -73 -32 -126 -14 -16 -31 -28 -38 -28 -17 0
-94 86 -94 105 0 38 20 56 60 53 22 -1 43 1 46 5 12 12 42 8 58 -9z m-133
-266 c11 -13 23 -26 27 -30 4 -4 17 -16 30 -27 28 -26 28 -62 1 -87 -16 -15
-36 -19 -87 -19 l-66 0 -8 40 c-23 105 45 186 103 123z m-283 -180 c7 -7 28
-11 48 -9 19 1 42 -3 50 -9 16 -14 19 -63 4 -89 -13 -25 -107 -84 -120 -76
-19 12 -70 94 -76 123 -10 52 59 95 94 60z m7 -332 c9 -13 27 -27 40 -30 63
-16 65 -90 3 -119 -46 -21 -127 -25 -138 -7 -17 26 -12 147 6 164 24 25 71 20
89 -8z m-272 -38 c13 -18 18 -34 13 -51 -7 -28 -73 -112 -95 -121 -8 -4 -35
15 -67 47 -42 42 -54 61 -54 85 0 43 40 70 79 55 21 -8 32 -7 47 4 26 19 54
13 77 -19z" id="node56" class="node"></path>
<path d="M1206 1244 c-3 -9 -6 -17 -6 -19 0 -11 64 -75 75 -75 18 0 68 77 61
95 -7 20 -43 19 -55 -2 -10 -17 -12 -17 -25 0 -17 21 -42 22 -50 1z" id="node57" class="node"></path>
<path d="M1142 988 c-6 -6 -12 -36 -12 -65 l0 -53 60 0 c50 0 61 3 70 21 16
29 -5 52 -41 45 -25 -5 -27 -3 -25 27 1 25 -3 33 -19 35 -11 1 -26 -3 -33 -10z" id="node58" class="node"></path>
<path d="M867 814 c-22 -23 27 -144 59 -144 6 0 32 20 58 43 32 30 45 49 40
60 -9 25 -43 31 -65 11 -10 -9 -20 -15 -22 -13 -1 2 -7 13 -13 24 -11 21 -44
31 -57 19z" id="node59" class="node"></path>
<path d="M865 490 c-14 -16 -17 -30 -12 -76 3 -31 8 -58 10 -61 10 -9 109 11
123 25 8 8 14 24 12 36 -2 17 -9 21 -41 20 -34 -1 -37 1 -35 23 2 16 -4 30
-18 39 -18 13 -23 12 -39 -6z" id="node60" class="node"></path>
<path d="M490 440 c-16 -29 -5 -53 42 -96 l42 -37 38 43 c30 34 38 51 36 74
-4 42 -40 48 -63 12 l-17 -26 -20 25 c-24 30 -44 32 -58 5z" id="node61" class="node"></path>
<path d="M1564 1448 c-45 -51 -44 -50 -28 -144 24 -143 80 -333 154 -524 61
-157 217 -450 310 -581 88 -125 106 -149 113 -149 5 0 21 8 35 19 49 34 136
74 236 107 121 41 219 97 287 166 47 47 50 53 34 63 -259 152 -469 372 -749
783 -17 25 -54 57 -90 79 -87 53 -152 99 -218 155 -31 26 -58 48 -60 48 -3 0
-13 -10 -24 -22z m227 -179 c20 -32 9 -66 -36 -108 -27 -25 -50 -38 -60 -35
-8 3 -15 9 -15 13 0 3 -14 21 -30 40 -34 38 -38 66 -14 92 13 14 29 17 81 15
42 -2 68 -8 74 -17z m57 -247 c31 -20 36 -167 6 -179 -8 -3 -40 -1 -71 3 -43
7 -60 15 -75 35 -16 22 -17 29 -7 52 7 15 23 30 36 33 13 4 23 12 23 19 0 34
56 57 88 37z m276 -193 c35 -27 33 -61 -5 -120 -45 -70 -49 -72 -95 -42 -67
45 -84 64 -84 99 0 39 21 58 68 58 20 1 46 7 57 13 27 16 28 16 59 -8z m13
-325 c24 -24 25 -30 19 -92 -4 -36 -10 -70 -13 -75 -8 -14 -122 0 -150 18 -44
29 -39 95 9 111 13 4 35 20 49 35 33 36 53 36 86 3z m266 -25 c17 -8 30 -8 43
-1 13 7 26 6 45 -4 56 -28 46 -78 -27 -142 -26 -23 -53 -42 -60 -42 -21 0
-104 110 -104 138 0 19 42 62 60 62 11 0 30 -5 43 -11z" id="node62" class="node"></path>
<path d="M1657 1263 c-16 -15 -5 -55 23 -85 l30 -33 36 38 c19 21 34 46 32 55
-4 23 -39 28 -50 8 -12 -22 -25 -20 -31 4 -5 19 -27 27 -40 13z" id="node63" class="node"></path>
<path d="M1790 995 c-6 -8 -9 -23 -5 -35 5 -17 2 -20 -23 -20 -43 0 -60 -24
-36 -51 15 -16 28 -19 73 -17 l56 3 3 47 c2 37 -1 51 -17 67 -25 25 -34 26
-51 6z" id="node64" class="node"></path>
<path d="M2060 796 c-11 -29 -25 -34 -34 -11 -3 8 -16 15 -30 15 -56 0 -45
-53 20 -99 l47 -33 18 24 c40 51 54 88 43 106 -18 28 -52 27 -64 -2z" id="node65" class="node"></path>
<path d="M2072 498 c-7 -7 -12 -24 -12 -40 0 -25 -2 -27 -25 -18 -18 7 -28 5
-40 -6 -18 -19 -19 -25 -1 -49 12 -17 110 -39 129 -28 4 2 7 33 7 68 0 53 -3
66 -19 75 -24 13 -24 13 -39 -2z" id="node66" class="node"></path>
<path d="M2342 458 c-21 -21 -13 -57 24 -98 20 -22 40 -40 45 -40 4 0 26 17
49 38 40 39 53 83 29 97 -16 11 -59 -4 -59 -20 0 -23 -24 -18 -35 7 -12 27
-35 34 -53 16z" id="node67" class="node"></path>



</g>
</svg>