<!--?xml version="1.0" standalone="no"?-->

<svg version="1.0" xmlns="http://www.w3.org/2000/svg" width="300.000000pt" height="281.000000pt" viewBox="0 0 300.000000 281.000000" preserveAspectRatio="xMidYMid meet">
<g transform="translate(0.000000,281.000000) scale(0.100000,-0.100000)" fill="#101010" stroke="none">
<path class="node" id="node1" d="M1725 2660 c-11 -5 -58 -9 -105 -9 -76 -1 -87 -3 -110 -26 -14 -14
-42 -39 -62 -56 -21 -17 -35 -35 -32 -40 3 -5 26 -9 52 -9 29 0 63 -8 87 -21
38 -21 90 -22 137 -4 10 4 24 -3 38 -17 19 -21 32 -24 148 -29 214 -10 314
-52 454 -191 78 -77 102 -108 82 -108 -3 0 -34 21 -68 46 -33 26 -67 49 -73
51 -7 3 -15 20 -19 39 -7 38 -19 44 -27 14 -5 -20 -8 -19 -59 13 -29 19 -80
48 -114 66 -59 30 -62 31 -97 16 -20 -8 -51 -15 -69 -15 -52 0 -76 -10 -82
-33 -3 -12 -21 -31 -41 -41 -19 -11 -34 -24 -32 -30 5 -17 49 -36 81 -36 17 0
40 -9 52 -21 22 -20 23 -20 59 -3 31 15 42 15 71 5 28 -10 38 -9 65 5 36 18
149 32 149 18 0 -5 -7 -31 -15 -58 -8 -27 -15 -65 -15 -83 0 -50 -43 -93 -92
-93 -32 0 -39 -4 -53 -34 -9 -19 -25 -42 -36 -52 -10 -9 -19 -26 -19 -37 0
-18 5 -19 48 -14 34 4 52 1 64 -10 16 -15 22 -14 58 2 37 17 41 17 58 2 10
-10 24 -17 31 -17 8 0 29 -13 47 -30 19 -16 47 -32 62 -36 61 -13 114 -37 129
-60 15 -23 33 -32 33 -16 0 15 -60 70 -95 86 -19 9 -35 24 -35 32 0 13 5 12
31 -3 17 -10 43 -30 58 -45 29 -32 41 -35 41 -13 0 19 -33 71 -94 149 -38 49
-46 67 -46 102 0 31 -9 54 -33 90 -38 55 -51 94 -33 94 6 0 37 -24 68 -53 l57
-53 -2 -64 c-2 -57 2 -72 32 -125 19 -33 37 -62 40 -65 13 -10 31 -62 31 -90
0 -17 4 -30 10 -30 6 0 7 28 3 75 -4 50 -2 75 5 75 6 0 14 -15 17 -32 4 -18
11 -37 15 -43 5 -5 8 -37 8 -70 -1 -33 1 -66 3 -74 2 -7 -1 -15 -7 -18 -7 -2
-14 7 -18 20 -6 25 -34 36 -69 29 -12 -2 -16 -9 -12 -22 4 -12 -10 -34 -43
-71 -27 -30 -55 -65 -61 -78 -10 -19 -18 -22 -42 -17 -16 3 -42 9 -58 12 -37
8 -46 -8 -27 -48 12 -23 13 -34 5 -45 -9 -10 -8 -18 6 -33 15 -17 16 -24 7
-46 -15 -31 -16 -161 -2 -169 6 -4 18 11 27 34 9 23 19 41 23 41 15 0 32 -59
40 -140 11 -98 -8 -206 -41 -236 -18 -17 -27 -8 -11 12 5 5 15 24 22 42 10 26
10 35 -1 48 -8 9 -20 44 -29 78 -14 56 -17 61 -45 64 -16 2 -39 11 -50 20 -11
9 -30 22 -42 29 -30 17 -47 -5 -39 -51 4 -21 2 -43 -5 -54 -10 -16 -8 -26 11
-57 20 -32 21 -41 11 -57 -11 -18 -9 -25 19 -53 18 -18 29 -38 26 -44 -11 -17
-76 -24 -115 -12 -32 9 -42 8 -89 -16 -29 -15 -57 -33 -64 -40 -12 -15 -99
-55 -105 -49 -7 7 47 95 64 105 21 11 8 31 -20 31 -12 0 -44 -12 -72 -25 -27
-14 -62 -25 -77 -25 -15 0 -56 -14 -90 -31 -35 -17 -70 -34 -77 -38 -29 -15
-54 -61 -67 -123 -12 -59 -12 -64 7 -83 19 -20 19 -20 82 3 61 22 157 30 157
13 0 -4 -24 -11 -53 -14 -30 -3 -69 -15 -88 -26 -19 -12 -50 -21 -69 -21 -31
-1 -33 -2 -17 -14 22 -17 22 -29 -2 -21 -16 5 -19 -1 -24 -42 -10 -87 30 -126
128 -125 28 0 63 -7 79 -15 15 -8 45 -21 65 -28 l38 -13 1 50 c0 28 3 53 7 56
3 3 22 -3 43 -12 47 -23 207 -30 224 -9 6 7 31 13 59 13 60 0 71 15 22 31 -21
6 -48 20 -61 30 -20 15 -39 17 -176 12 -141 -5 -162 -4 -238 17 -46 13 -87 27
-93 32 -18 15 50 8 100 -11 85 -32 152 -36 225 -12 36 12 110 26 165 31 55 5
122 16 149 25 27 8 62 15 78 15 15 0 28 4 28 9 0 10 -22 15 -103 26 -26 4 -62
12 -79 19 l-30 13 83 27 c58 19 101 26 138 25 58 -3 83 15 37 27 -14 3 -26 10
-26 15 0 16 35 26 114 33 84 6 137 29 117 49 -6 6 -45 14 -87 18 -49 5 -83 14
-94 24 -18 17 -18 18 5 54 31 46 99 201 139 315 4 12 10 16 16 10 6 -6 3 -37
-6 -82 -17 -82 -15 -223 3 -229 7 -3 16 18 24 54 7 32 27 84 45 115 38 67 54
117 54 175 0 49 -22 138 -44 181 -9 17 -16 39 -16 48 0 23 108 -141 118 -179
4 -17 13 -32 18 -34 21 -7 44 80 44 163 0 75 -2 82 -27 106 -16 14 -41 33 -58
42 -48 25 -85 63 -85 87 l0 23 20 -22 c12 -12 31 -22 45 -22 45 0 151 128 126
153 -18 18 -111 -4 -146 -34 -18 -16 -35 -29 -39 -29 -14 0 -5 60 12 72 33 25
62 71 62 100 0 16 14 61 31 99 29 67 30 73 19 126 -7 31 -9 69 -6 84 3 16 2
29 -2 29 -11 -1 -80 -67 -99 -96 -17 -26 -34 -121 -36 -197 -1 -20 -5 -36 -10
-34 -15 5 -37 79 -37 128 0 51 32 153 56 180 10 11 14 25 10 35 -4 11 2 26 15
40 19 21 21 27 11 50 -10 20 -9 30 3 47 19 27 19 57 1 57 -8 0 -28 -11 -44
-25 -17 -14 -32 -25 -36 -25 -3 0 -20 13 -38 29 -18 15 -49 33 -69 40 -20 6
-45 21 -54 31 -21 23 -45 26 -45 6 0 -7 7 -33 15 -56 8 -23 15 -72 15 -108 l0
-65 -52 53 c-145 146 -418 334 -535 370 -16 4 -35 10 -43 13 -8 3 -24 2 -35
-3z m116 -109 c96 -25 189 -61 189 -73 0 -6 -6 -8 -12 -5 -61 22 -216 65 -266
73 -23 4 -45 11 -48 15 -9 15 59 10 137 -10z m179 -241 c0 -5 -16 -10 -35 -10
-19 0 -35 5 -35 10 0 6 16 10 35 10 19 0 35 -4 35 -10z m57 -16 c-3 -3 -12 -4
-19 -1 -8 3 -5 6 6 6 11 1 17 -2 13 -5z m439 -702 c-8 -65 -51 -195 -65 -200
-15 -5 -14 19 4 61 8 20 15 52 15 71 0 41 27 116 42 116 7 0 8 -18 4 -48z m70
-67 c6 -24 -13 -81 -24 -71 -4 4 -7 34 -7 67 0 51 2 57 13 42 7 -10 15 -27 18
-38z m-106 -307 c-37 -123 -82 -255 -91 -268 -27 -37 40 265 68 307 25 38 39
13 23 -39z m35 -30 c-18 -86 -129 -337 -156 -354 -14 -8 -11 0 24 68 31 58 97
233 97 256 0 22 20 62 31 62 7 0 8 -11 4 -32z m-262 -300 c3 -21 2 -38 -4 -38
-5 0 -9 19 -9 42 0 49 5 47 13 -4z m2 -137 c6 -10 -189 -20 -215 -11 -8 3 28
8 80 11 52 3 103 6 112 7 9 1 19 -2 23 -7z m-535 -109 c-19 -11 -48 -26 -65
-35 -37 -21 -65 -22 -65 -2 0 8 9 15 19 15 10 0 38 9 62 20 58 26 97 27 49 2z
m-194 -58 c-15 -14 -31 -22 -35 -19 -7 8 36 45 53 45 6 0 -2 -12 -18 -26z
m425 -18 c-23 -27 -101 -49 -154 -43 -69 9 -77 21 -14 25 29 1 77 9 107 16 71
18 75 19 61 2z m74 4 c-3 -5 -10 -10 -16 -10 -5 0 -9 5 -9 10 0 6 7 10 16 10
8 0 12 -4 9 -10z m-25 -211 c0 -5 -10 -9 -22 -9 -38 0 -98 12 -94 19 6 9 116
0 116 -10z"></path>
<path class="node" id="node2" d="M685 2541 c4 -19 0 -41 -10 -62 -16 -30 -16 -33 4 -60 12 -15 21 -40
21 -55 0 -15 8 -36 17 -46 14 -16 15 -23 5 -38 -7 -11 -12 -26 -12 -34 0 -8
-21 -36 -46 -62 l-47 -49 7 94 c3 57 12 104 21 117 19 30 19 34 -3 34 -21 0
-69 -50 -96 -100 -11 -19 -27 -43 -37 -53 -10 -9 -23 -36 -29 -60 -6 -23 -18
-60 -26 -82 -16 -40 -20 -191 -9 -320 l5 -60 -17 35 c-9 19 -18 61 -20 93 -1
32 -10 72 -19 89 -14 28 -14 36 0 95 11 42 13 70 7 81 -5 9 -12 39 -16 65 -6
37 -13 51 -31 59 -13 6 -31 22 -39 35 -20 29 -35 21 -35 -18 0 -17 -7 -43 -15
-58 -11 -22 -12 -37 -5 -62 14 -47 13 -51 -12 -44 -21 7 -21 6 -14 -75 9 -114
26 -158 78 -200 23 -19 67 -59 96 -87 29 -29 57 -53 63 -53 5 0 9 22 9 48 0
64 25 147 61 199 16 23 29 52 29 65 0 13 9 39 20 58 11 19 27 49 35 65 20 41
52 81 60 74 3 -4 -10 -35 -29 -70 -19 -35 -38 -84 -42 -109 -4 -25 -13 -52
-20 -60 -34 -39 -83 -150 -89 -199 -4 -35 -2 -51 5 -46 5 3 10 15 10 27 0 25
56 98 76 98 19 0 18 -53 -1 -90 -9 -16 -29 -37 -47 -46 -20 -10 -27 -19 -19
-23 6 -4 9 -15 5 -24 -4 -10 4 -28 20 -48 31 -36 31 -45 9 -89 -15 -30 -17
-32 -24 -14 -4 10 -10 35 -13 54 -7 41 -22 67 -32 58 -4 -4 -6 -51 -6 -105 1
-148 -13 -193 -38 -119 -12 37 -5 143 13 186 6 14 9 29 9 33 -1 4 5 10 13 13
23 9 18 24 -9 24 -21 0 -25 -5 -24 -29 1 -33 -20 -91 -32 -91 -5 0 -11 13 -15
29 -7 31 3 59 29 81 23 18 20 26 -14 40 -22 9 -31 21 -36 46 -9 46 -24 43 -24
-6 l0 -39 -60 2 c-59 1 -107 -19 -117 -50 -6 -16 86 -76 116 -76 14 0 40 3 57
7 31 8 32 7 37 -30 4 -36 1 -42 -39 -77 -72 -63 -86 -95 -89 -203 -2 -52 0
-94 4 -94 4 0 15 16 24 35 9 18 28 41 41 51 33 21 62 69 70 117 4 20 10 37 14
37 4 0 15 -17 24 -37 16 -35 16 -39 -3 -97 -15 -43 -19 -75 -15 -108 5 -44 -4
-62 -19 -38 -10 15 -56 12 -76 -6 -10 -9 -36 -18 -58 -21 -48 -7 -51 -15 -14
-40 15 -10 43 -34 62 -54 21 -22 53 -42 78 -48 23 -6 47 -19 52 -29 8 -13 25
-17 86 -19 70 -1 83 -5 139 -39 80 -50 198 -136 192 -141 -2 -2 -45 8 -96 23
-74 23 -95 26 -111 16 -10 -7 -41 -12 -67 -12 -48 0 -50 -1 -96 -60 -26 -33
-44 -64 -41 -70 3 -5 29 -10 56 -10 28 0 59 -5 70 -11 16 -8 27 -6 52 9 19 10
39 16 47 12 8 -4 32 -15 52 -23 20 -9 58 -32 84 -53 48 -36 49 -36 124 -30 91
7 250 24 305 32 22 3 51 1 65 -4 20 -7 11 -11 -58 -22 -46 -7 -103 -10 -128
-7 -25 2 -63 1 -84 -4 -41 -9 -136 -65 -159 -93 -13 -15 -10 -16 25 -11 21 3
91 10 154 15 63 4 125 12 138 15 19 6 22 4 22 -17 0 -13 -7 -34 -16 -47 -16
-22 -16 -27 1 -75 24 -69 30 -73 58 -42 13 14 32 26 41 26 9 0 22 12 29 28 6
15 22 35 35 45 16 14 22 28 20 50 -1 18 4 42 10 54 7 12 10 28 7 35 -3 8 4 14
21 14 14 1 28 5 31 8 9 9 -19 37 -33 32 -6 -2 -42 20 -79 51 -52 43 -74 69
-96 117 -16 33 -37 70 -46 81 -32 36 -144 115 -172 121 -42 8 -91 33 -91 44 0
6 -5 8 -10 5 -13 -8 -13 -66 0 -101 10 -24 53 -81 94 -123 7 -7 52 -30 100
-51 47 -22 101 -50 119 -64 19 -14 51 -32 72 -39 22 -8 41 -19 43 -26 5 -15
-5 -13 -133 34 -49 18 -105 36 -123 40 -50 10 -140 99 -173 171 -16 34 -29 75
-29 91 -1 15 -7 39 -15 53 -8 14 -14 38 -15 53 0 34 -16 67 -41 85 -10 7 -19
21 -21 32 -5 31 -21 27 -40 -9 -23 -45 -50 -74 -58 -61 -3 5 -2 40 4 76 7 47
6 86 -2 135 -7 38 -12 97 -12 132 0 65 -30 148 -63 176 -10 7 -17 20 -17 27 0
8 -7 14 -15 14 -19 0 -65 29 -65 41 0 21 39 6 95 -36 61 -45 100 -56 123 -33
7 7 29 18 50 23 38 11 59 45 27 45 -9 0 -27 12 -40 28 -25 28 -32 52 -15 52 6
0 10 8 10 18 0 9 14 29 31 43 29 23 32 32 34 82 1 32 0 57 -2 57 -17 0 -85
-45 -100 -66 -23 -31 -43 -25 -43 13 0 17 13 38 39 62 21 20 45 50 54 67 9 17
32 50 51 73 20 24 36 49 36 57 0 8 13 42 30 76 16 34 27 64 25 66 -14 14 -67
-28 -110 -88 -44 -60 -75 -87 -75 -63 0 27 55 171 71 185 11 9 43 21 71 28 29
6 62 19 73 29 13 12 40 20 75 23 43 3 61 10 82 31 15 15 35 27 46 27 10 0 27
6 37 14 18 13 17 14 -11 31 -16 10 -40 25 -53 34 -55 37 -62 39 -99 29 -20 -5
-56 -11 -80 -12 -36 -3 -51 -11 -92 -51 l-49 -48 -6 39 c-10 63 -22 84 -48 84
-13 0 -32 7 -43 15 -10 8 -27 15 -37 15 -15 0 -17 -5 -12 -29z m260 -130 c-24
-20 -95 -54 -102 -47 -9 8 15 24 62 43 37 14 52 16 40 4z m-185 -211 c0 -16
-4 -32 -10 -35 -6 -4 -10 10 -10 35 0 25 4 39 10 35 6 -3 10 -19 10 -35z
m-112 -526 c-14 -14 -110 -35 -98 -21 8 9 104 44 109 40 3 -2 -2 -10 -11 -19z
m-53 -281 c5 -43 9 -123 10 -178 1 -55 5 -118 9 -140 9 -46 0 -38 -39 36 -23
45 -23 47 -7 91 14 40 14 54 3 112 -13 65 -8 156 8 156 5 0 12 -35 16 -77z
m-15 -333 c13 -28 29 -49 35 -48 18 4 66 -58 59 -76 -3 -8 6 -31 22 -53 25
-33 25 -35 5 -18 -52 45 -159 182 -166 213 -11 51 18 40 45 -18z m-126 -94
c29 -49 31 -56 17 -56 -6 0 -21 23 -35 50 -31 62 -17 66 18 6z m286 -61 c0
-30 -15 -33 -30 -6 -14 27 -13 31 10 31 15 0 20 -7 20 -25z m115 -135 c16 -16
24 -30 19 -30 -6 0 -23 14 -39 30 -16 17 -24 30 -19 30 6 0 23 -13 39 -30z
m65 -65 c11 -13 10 -14 -4 -9 -9 3 -16 10 -16 15 0 13 6 11 20 -6z m-5 -35 c3
-5 -1 -10 -9 -10 -9 0 -16 5 -16 10 0 6 4 10 9 10 6 0 13 -4 16 -10z m25 -46
c24 -15 23 -15 -25 -9 -59 6 -86 25 -34 25 18 -1 45 -8 59 -16z m500 -128 c0
-3 -4 -8 -10 -11 -5 -3 -10 -1 -10 4 0 6 5 11 10 11 6 0 10 -2 10 -4z m-57
-30 c-4 -19 -143 -53 -143 -36 0 21 65 50 105 48 22 -2 39 -7 38 -12z"></path>
<path class="node" id="node3" d="M2336 1716 c-39 -15 -70 -36 -92 -62 -18 -21 -33 -41 -34 -44 -1 -16
102 -29 167 -22 7 1 25 20 39 42 14 22 35 42 45 45 11 4 19 10 19 15 0 8 -73
52 -82 49 -2 0 -29 -11 -62 -23z"></path>
<path class="node" id="node4" d="M1310 753 c-24 -55 -22 -74 20 -131 26 -37 105 -90 116 -79 2 2 -1
18 -7 35 -7 22 -7 36 0 51 26 48 -6 126 -63 154 -20 9 -39 17 -41 17 -2 0 -13
-21 -25 -47z"></path>
</g>
<g transform="translate(0.000000,281.000000) scale(0.100000,-0.100000)" fill="#885DA6" stroke="none">

<path class="node" id="node6" d="M1704 2561 c3 -4 25 -11 48 -15 50 -8 205 -51 266 -73 6 -3 12 -1 12
5 0 21 -229 92 -297 92 -19 0 -32 -4 -29 -9z"></path>
<path class="node" id="node7" d="M1950 2310 c0 -5 16 -10 35 -10 19 0 35 5 35 10 0 6 -16 10 -35 10
-19 0 -35 -4 -35 -10z"></path>
<path class="node" id="node8" d="M2058 2293 c7 -3 16 -2 19 1 4 3 -2 6 -13 5 -11 0 -14 -3 -6 -6z"></path>
<path class="node" id="node9" d="M2486 1600 c-9 -22 -16 -56 -16 -76 0 -19 -7 -51 -15 -71 -18 -42
-19 -66 -4 -61 14 5 57 135 65 200 8 60 -8 63 -30 8z"></path>
<path class="node" id="node10" d="M2555 1521 c0 -69 10 -86 25 -45 12 31 8 59 -12 87 -11 15 -13 9 -13
-42z"></path>
<path class="node" id="node11" d="M2457 1257 c-28 -42 -95 -344 -68 -307 9 13 54 145 91 268 16 52 2
77 -23 39z"></path>
<path class="node" id="node12" d="M2490 1194 c-6 -14 -10 -30 -10 -36 0 -23 -66 -198 -97 -256 -35 -68
-38 -76 -24 -68 27 17 138 268 156 354 8 39 -11 44 -25 6z"></path>
<path class="node" id="node13" d="M2240 892 c0 -23 4 -42 9 -42 6 0 7 17 4 38 -8 51 -13 53 -13 4z"></path>
<path class="node" id="node14" d="M2120 751 c-52 -3 -88 -8 -80 -11 26 -9 221 1 215 11 -4 5 -14 8 -23
7 -9 -1 -60 -4 -112 -7z"></path>
<path class="node" id="node15" d="M1671 640 c-24 -11 -52 -20 -62 -20 -10 0 -19 -7 -19 -15 0 -20 28
-19 65 2 17 9 46 24 65 35 48 25 9 24 -49 -2z"></path>
<path class="node" id="node16" d="M1509 591 c-13 -11 -21 -22 -18 -26 4 -3 20 5 35 19 34 29 18 35 -17
7z"></path>
<path class="node" id="node17" d="M1890 564 c-30 -7 -78 -15 -107 -16 -63 -4 -55 -16 14 -25 53 -6 131
16 154 43 14 17 10 16 -61 -2z"></path>
<path class="node" id="node18" d="M2000 570 c0 -5 4 -10 9 -10 6 0 13 5 16 10 3 6 -1 10 -9 10 -9 0
-16 -4 -16 -10z"></path>
<path class="node" id="node19" d="M1884 369 c-4 -7 56 -19 94 -19 12 0 22 4 22 9 0 10 -110 19 -116 10z"></path>
<path class="node" id="node20" d="M905 2407 c-47 -19 -71 -35 -62 -43 4 -4 26 3 50 16 70 38 76 52 12
27z"></path>
<path class="node" id="node21" d="M740 2200 c0 -25 4 -39 10 -35 6 3 10 19 10 35 0 16 -4 32 -10 35 -6
4 -10 -10 -10 -35z"></path>
<path class="node" id="node22" d="M605 1678 c-65 -25 -70 -32 -16 -25 38 5 83 30 70 40 -2 2 -26 -5
-54 -15z"></path>
<path class="node" id="node23" d="M564 1425 c-3 -26 -1 -73 7 -111 11 -58 11 -72 -3 -112 -16 -44 -16
-46 7 -91 39 -74 48 -82 39 -36 -4 22 -8 85 -9 140 -2 125 -15 255 -26 255 -4
0 -11 -20 -15 -45z"></path>
<path class="node" id="node24" d="M535 1078 c7 -31 114 -168 166 -213 20 -17 20 -15 -5 18 -16 22 -25
45 -22 53 7 18 -41 80 -59 76 -6 -1 -22 20 -35 48 -27 58 -56 69 -45 18z"></path>
<path class="node" id="node25" d="M436 960 c14 -27 29 -50 35 -50 14 0 12 7 -17 56 -35 60 -49 56 -18
-6z"></path>
<path class="node" id="node26" d="M700 924 c0 -13 21 -44 30 -44 6 0 10 11 10 25 0 18 -5 25 -20 25
-11 0 -20 -3 -20 -6z"></path>
<path class="node" id="node27" d="M835 770 c16 -16 33 -30 39 -30 5 0 -3 14 -19 30 -16 17 -33 30 -39
30 -5 0 3 -13 19 -30z"></path>
<path class="node" id="node28" d="M900 711 c0 -5 7 -12 16 -15 14 -5 15 -4 4 9 -14 17 -20 19 -20 6z"></path>
<path class="node" id="node29" d="M890 670 c0 -5 7 -10 16 -10 8 0 12 5 9 10 -3 6 -10 10 -16 10 -5 0
-9 -4 -9 -10z"></path>
<path class="node" id="node30" d="M856 630 c5 -5 32 -12 59 -15 48 -6 49 -6 25 9 -28 17 -100 22 -84 6z"></path>
<path class="node" id="node31" d="M1420 489 c0 -5 5 -7 10 -4 6 3 10 8 10 11 0 2 -4 4 -10 4 -5 0 -10
-5 -10 -11z"></path>
<path class="node" id="node32" d="M1273 460 c-64 -39 -28 -47 70 -16 51 17 51 30 2 34 -26 2 -51 -4
-72 -18z"></path>
</g>
</svg>