<!--?xml version="1.0" standalone="no"?-->

<svg xmlns="http://www.w3.org/2000/svg" width="300.000000pt" height="300.000000pt" viewBox="0 0 300.000000 300.000000" preserveAspectRatio="xMidYMid meet">
<g transform="translate(0.000000,300.000000) scale(0.100000,-0.100000)" fill="#070707" stroke="none">
<path style="position: relative;" class="node" id="node1" d="M557 2814 c-138 -25 -287 -123 -287 -190 0 -44 -9 -50 -84 -58 -69
-7 -106 -19 -106 -35 0 -10 85 -45 147 -61 26 -6 47 -19 54 -33 7 -12 14 -66
17 -120 5 -102 -3 -158 -40 -276 -28 -86 -27 -191 2 -311 40 -163 101 -280
204 -388 57 -59 281 -229 377 -285 52 -31 172 -61 211 -53 20 4 28 1 28 -9 0
-18 -83 -121 -180 -222 -43 -45 -86 -94 -96 -110 -9 -15 -27 -44 -40 -63 -12
-19 -25 -52 -28 -73 -8 -45 -19 -50 -150 -77 -48 -11 -90 -21 -92 -23 -2 -2
57 -45 132 -95 124 -84 174 -107 174 -83 0 5 15 14 33 21 17 8 40 20 49 28 14
11 22 12 51 1 31 -11 38 -10 64 9 29 21 90 92 78 92 -3 0 -17 -7 -30 -16 -13
-9 -30 -14 -37 -12 -7 3 26 30 74 61 100 66 118 75 118 55 0 -15 50 -68 64
-68 4 0 0 10 -8 22 -9 12 -16 39 -16 59 0 36 1 36 103 88 57 28 107 51 113 51
5 0 21 6 36 14 15 8 41 17 59 21 19 4 40 11 49 16 8 5 40 15 70 23 139 37 166
47 183 67 24 30 22 82 -6 115 -34 39 -124 46 -185 15 -40 -20 -44 -21 -74 -5
-26 13 -38 14 -70 5 -21 -7 -43 -9 -48 -6 -5 3 7 32 27 65 35 60 35 60 83 60
44 0 48 2 43 21 -6 20 -3 20 53 13 52 -6 57 -5 46 8 -10 12 -9 18 3 28 33 27
107 9 180 -44 54 -40 55 -38 15 21 -54 79 -59 105 -26 137 19 20 35 26 67 26
77 0 153 -54 280 -198 25 -29 54 -52 63 -52 17 0 17 2 2 22 -43 61 -88 150
-79 159 11 11 133 -72 228 -156 39 -34 106 -88 149 -120 l79 -58 95 -1 c135
-1 135 2 -14 124 -43 35 -81 67 -84 70 -3 3 -34 26 -70 52 -95 67 -133 100
-246 212 -56 56 -148 144 -204 196 -57 52 -113 111 -125 130 -12 19 -41 89
-65 155 -133 369 -179 434 -440 609 -77 52 -316 176 -338 176 -5 0 -61 38
-123 85 -135 101 -227 148 -332 169 -88 18 -79 18 -180 0z m138 -162 c69 -34
82 -68 43 -109 l-22 -23 39 -33 c21 -17 57 -45 79 -62 35 -26 41 -35 38 -62
-2 -21 -9 -33 -18 -33 -8 0 -14 -7 -14 -15 0 -8 -6 -15 -14 -15 -7 0 -19 -7
-26 -15 -7 -9 -19 -14 -26 -11 -6 2 -14 -4 -17 -15 -3 -11 -14 -19 -25 -19
-12 0 -24 -5 -27 -11 -4 -6 -13 -8 -21 -5 -7 3 -16 1 -19 -4 -4 -6 -28 -10
-54 -10 -32 0 -53 -5 -62 -16 -7 -9 -22 -20 -34 -25 -85 -38 -170 -118 -160
-150 12 -37 -5 -97 -38 -129 -17 -16 -34 -30 -38 -30 -24 0 -28 114 -5 158 8
16 22 74 31 129 15 93 13 192 -7 308 -2 16 4 21 32 25 28 4 35 10 36 28 0 12
-3 22 -8 22 -13 0 -78 70 -78 84 0 19 43 40 85 42 121 7 220 16 224 20 7 7 73
-7 106 -24z m746 -1642 c17 0 9 -30 -21 -79 -31 -49 -67 -81 -94 -81 -7 0 -34
-20 -58 -44 -24 -23 -48 -45 -54 -47 -5 -2 -20 -27 -33 -55 -18 -41 -32 -55
-67 -72 -56 -27 -57 -27 -102 3 -44 30 -52 30 -102 6 -24 -12 -42 -15 -46 -9
-6 9 1 19 71 98 22 25 51 65 65 89 40 69 152 191 176 191 11 0 48 -11 82 -25
72 -29 73 -29 66 -11 -4 11 5 13 43 8 42 -4 46 -3 36 10 -15 17 -6 31 15 23 7
-3 18 -5 23 -5z m64 -179 c-6 -5 -67 -38 -137 -73 -167 -85 -171 -76 -10 25
23 15 42 31 42 37 0 5 19 11 43 13 23 2 49 4 57 5 8 1 10 -1 5 -7z m-545 -232
c0 -8 11 -9 32 -5 28 6 31 5 18 -7 -31 -29 -217 -90 -226 -75 -9 14 14 32 67
52 25 9 54 23 65 31 23 17 44 19 44 4z"></path>
<path style="position: relative;" class="node" id="node2" d="M612 2604 c-27 -18 -28 -45 -4 -67 25 -22 48 -21 72 3 24 24 25 43 4
64 -20 20 -43 20 -72 0z m28 -19 c0 -8 -7 -15 -15 -15 -8 0 -15 7 -15 15 0 8
7 15 15 15 8 0 15 -7 15 -15z"></path>
</g>
<g transform="translate(0.000000,300.000000) scale(0.100000,-0.100000)" fill="#A1A1A1" stroke="none">

<path style="position: relative;" class="node" id="node4" d="M589 2676 c-4 -4 -103 -13 -224 -20 -42 -2 -85 -23 -85 -42 0 -14 65
-84 78 -84 5 0 8 -10 8 -22 -1 -18 -8 -24 -36 -28 -28 -4 -34 -9 -32 -25 20
-116 22 -215 7 -308 -9 -55 -23 -113 -31 -129 -23 -44 -19 -158 5 -158 4 0 21
14 38 30 33 32 50 92 38 129 -10 32 75 112 160 150 12 5 27 16 34 25 9 11 30
16 62 16 26 0 50 4 54 10 3 5 12 7 19 4 8 -3 17 -1 21 5 3 6 15 11 27 11 11 0
22 8 25 19 3 11 11 17 17 15 7 -3 19 2 26 11 7 8 19 15 26 15 8 0 14 7 14 15
0 8 6 15 14 15 9 0 16 12 18 33 3 27 -3 36 -38 62 -22 17 -58 45 -79 62 l-39
33 22 23 c39 41 26 75 -43 109 -33 17 -99 31 -106 24z m95 -72 c21 -21 20 -40
-4 -64 -24 -24 -47 -25 -72 -3 -24 22 -23 49 4 67 29 20 52 20 72 0z"></path>
<path style="position: relative;" class="node" id="node5" d="M610 2585 c0 -8 7 -15 15 -15 8 0 15 7 15 15 0 8 -7 15 -15 15 -8 0
-15 -7 -15 -15z"></path>



</g>
</svg>